<?xml version="1.0" standalone="no"?>
<!DOCTYPE svg PUBLIC "-//W3C//DTD SVG 20010904//EN"
 "http://www.w3.org/TR/2001/REC-SVG-20010904/DTD/svg10.dtd">
<svg version="1.0" xmlns="http://www.w3.org/2000/svg"
 width="501.000000pt" height="284.000000pt" viewBox="0 0 501.000000 284.000000"
 preserveAspectRatio="xMidYMid meet">

<g transform="translate(0.000000,284.000000) scale(0.100000,-0.100000)"
fill="#000000" stroke="none">
<path d="M2805 2020 c-17 -19 -17 -39 -6 -422 7 -222 15 -413 18 -426 7 -31
-14 -52 -53 -52 -39 0 -74 -29 -74 -60 0 -35 44 -70 88 -70 l39 0 7 -127 c6
-121 8 -129 32 -151 30 -26 58 -22 87 11 16 18 18 37 15 155 l-3 135 85 26
c115 37 198 83 259 144 62 63 85 99 110 175 29 86 34 165 18 258 -39 218 -178
351 -427 409 -95 22 -172 20 -195 -5z m200 -124 c131 -34 224 -107 272 -213
21 -46 26 -71 26 -147 1 -109 -12 -160 -56 -218 -62 -81 -186 -154 -272 -161
l-30 -2 -6 205 c-4 113 -10 283 -13 378 -8 195 -14 183 79 158z"/>
<path d="M4055 1690 c-121 -110 -223 -200 -227 -200 -5 0 -8 66 -8 148 0 173
-7 195 -61 200 -67 6 -69 -1 -69 -254 l0 -225 -35 -36 c-25 -26 -35 -45 -35
-68 0 -23 9 -39 35 -62 l35 -31 0 -214 c0 -117 4 -218 8 -224 4 -6 17 -16 29
-23 25 -13 67 1 80 28 4 9 10 92 13 184 l5 169 125 -87 c445 -310 460 -319
497 -282 19 18 20 61 3 82 -7 8 -124 92 -262 187 -383 266 -368 254 -368 287
0 31 43 73 397 394 85 78 144 139 148 154 9 38 -18 73 -58 73 -29 0 -61 -26
-252 -200z"/>
<path d="M4707 842 c-17 -19 -23 -97 -9 -118 28 -42 95 -35 113 13 14 36 4 94
-18 110 -25 19 -67 16 -86 -5z"/>
</g>
</svg>
